Format                                   : MPEG-4
Format profile                           : Base Media / Version 2
Codec ID                                 : mp42
File size                                : 985 MiB
Duration                                 : 49mn 36s
Overall bit rate mode                    : Variable
Overall bit rate                         : 2 776 Kbps
Encoded date                             : UTC 2013-02-13 21:09:45
Tagged date                              : UTC 2013-02-13 21:09:45
gsst                                     : 0
gstd                                     : 2976123
gssd                                     : BADC21384MH1362562849868317
gshh                                     :

Video
ID                                       : 1
Format                                   : AVC
Format/Info                              : Advanced Video Codec
Format profile                           : High@L3.1
Format settings, CABAC                   : Yes
Format settings, ReFrames                : 1 frame
Format settings, GOP                     : M=1, N=60
Codec ID                                 : avc1
Codec ID/Info                            : Advanced Video Coding
Duration                                 : 49mn 36s
Bit rate                                 : 2 581 Kbps
Maximum bit rate                         : 6 184 Kbps
Width                                    : 1 280 pixels
Height                                   : 720 pixels
Display aspect ratio                     : 16:9
Frame rate mode                          : Constant
Frame rate                               : 25.000 fps
Color space                              : YUV
Chroma subsampling                       : 4:2:0
Bit depth                                : 8 bits
Scan type                                : Progressive
Bits/(Pixel*Frame)                       : 0.112
Stream size                              : 916 MiB (93%)
Tagged date                              : UTC 2013-02-13 21:17:25

Audio
ID                                       : 2
Format                                   : AAC
Format/Info                              : Advanced Audio Codec
Format profile                           : LC
Codec ID                                 : 40
Duration                                 : 49mn 36s
Bit rate mode                            : Variable
Bit rate                                 : 192 Kbps
Maximum bit rate                         : 201 Kbps
Channel(s)                               : 2 channels
Channel positions                        : Front: L R
Sampling rate                            : 44.1 KHz
Compression mode                         : Lossy
Stream size                              : 68.1 MiB (7%)
Title                                    : IsoMedia File Produced by Google, 5-11-2011
Encoded date                             : UTC 2013-02-13 21:14:48
Tagged date                              : UTC 2013-02-13 21:17:25

